<svg width="205" height="161" viewBox="0 0 205 161" fill="none" xmlns="http://www.w3.org/2000/svg">
<path opacity="0.15" fill-rule="evenodd" clip-rule="evenodd" d="M188.735 120.8V16.3623C188.735 15.81 188.287 15.3623 187.735 15.3623H162.4H161.303H32.3703H1C0.447715 15.3623 0 15.81 0 16.3623V120.8C0 121.352 0.447717 121.8 1 121.8H55.4135H59.2541H91.0757V155.816H59.2541V160.205H125.092V155.816H95.4649V121.8H162.4H168.984H187.735C188.287 121.8 188.735 121.352 188.735 120.8Z" fill="#008CE4"/>
<path d="M18.5568 1H170.178V104.341H18.5568V1Z" fill="white" stroke="#008CE4" stroke-width="2"/>
<rect x="39.503" y="40.6001" width="61.4487" height="1.0973" fill="#008CE4"/>
<rect x="109.73" y="40.6001" width="49.3784" height="1.0973" fill="#008CE4"/>
<rect x="39.5026" y="46.0867" width="36.2108" height="1.0973" fill="#008CE4"/>
<rect x="84.4918" y="46.0867" width="36.2108" height="1.0973" fill="#008CE4"/>
<rect x="129.481" y="46.0867" width="29.627" height="1.0973" fill="#008CE4"/>
<rect x="39.5026" y="51.573" width="20.8486" height="1.0973" fill="#008CE4"/>
<rect x="69.1296" y="51.573" width="28.5297" height="1.0973" fill="#008CE4"/>
<rect x="106.438" y="51.573" width="18.6541" height="1.0973" fill="#008CE4"/>
<rect x="133.87" y="51.573" width="25.2378" height="1.0973" fill="#008CE4"/>
<rect width="36.2108" height="1.0973" transform="matrix(-1 0 0 1 133.87 71.3245)" fill="#008CE4"/>
<rect width="49.3784" height="1.0973" transform="matrix(-1 0 0 1 88.8813 71.3245)" fill="#008CE4"/>
<rect width="36.2108" height="1.0973" transform="matrix(-1 0 0 1 114.119 76.8108)" fill="#008CE4"/>
<rect width="29.627" height="1.0973" transform="matrix(-1 0 0 1 69.13 76.8108)" fill="#008CE4"/>
<rect width="20.8486" height="1.0973" transform="matrix(-1 0 0 1 125.092 82.2974)" fill="#008CE4"/>
<rect width="28.5297" height="1.0973" transform="matrix(-1 0 0 1 95.4651 82.2974)" fill="#008CE4"/>
<rect width="18.6541" height="1.0973" transform="matrix(-1 0 0 1 58.157 82.2974)" fill="#008CE4"/>
<path d="M131.59 88.2636V89.1475L132.467 89.256L142.667 90.5178L144.14 93.4341L137.86 100.893L137.472 101.353L137.698 101.911L139.039 105.23L139.127 105.446L139.301 105.602L146.007 111.575L146.652 112.149L147.314 111.595L155.626 104.634L159.127 105.624L159.756 116.197L159.812 117.137H160.754H173.495H174.434L174.493 116.2L175.127 106.159L177.993 104.741L184.862 111.539L185.438 112.11L186.116 111.663L192.151 107.681L192.353 107.547L192.472 107.335L195.825 101.363L196.15 100.784L195.743 100.259L189.508 92.2378L190.801 90.5315L201.111 89.256L201.988 89.1475V88.2636V75.6541V74.7702L201.111 74.6616L190.911 73.3998L189.438 70.4835L195.718 63.025L196.312 62.3192L195.656 61.6701L186.939 53.0426L186.266 52.376L185.564 53.0127L178.022 59.8551L175.127 58.4227L174.493 48.3811L174.434 47.4441H173.495H160.083H159.148L159.086 48.3769L158.44 57.9543L156.631 59.7455L147.259 52.944L146.572 52.4453L145.969 53.0426L137.251 61.6701L136.563 62.3507L137.221 63.0604L144.125 70.5143L142.659 73.4157L134.451 74.6655L134.129 74.7144L133.898 74.9433L131.887 76.9343L131.59 77.2278V77.645V88.2636Z" fill="white" stroke="white" stroke-width="2"/>
<mask id="path-20-outside-1" maskUnits="userSpaceOnUse" x="128.578" y="44.4531" width="77" height="76" fill="black">
<rect fill="white" x="128.578" y="44.4531" width="77" height="76"/>
<path d="M199.272 74.3267H192.496C191.407 74.3267 190.51 73.7334 190.093 72.7379C189.676 71.7424 189.888 70.6938 190.656 69.9319L195.447 65.1921C196.151 64.4953 196.538 63.5675 196.538 62.5826C196.538 61.5964 196.151 60.67 195.447 59.9718L189.34 53.9285C187.932 52.5349 185.477 52.5322 184.066 53.9285L179.277 58.6684C178.507 59.4289 177.445 59.6413 176.441 59.2272C175.436 58.8144 174.836 57.9264 174.836 56.8486V50.143C174.836 48.1083 173.164 46.4531 171.108 46.4531H162.471C160.415 46.4531 158.742 48.1083 158.742 50.143V56.8486C158.742 57.9264 158.143 58.8144 157.137 59.2272C156.134 59.6426 155.072 59.4289 154.302 58.6684L149.513 53.9285C148.102 52.5322 145.646 52.5349 144.238 53.9285L138.132 59.9718C137.428 60.6686 137.04 61.5964 137.04 62.5826C137.04 63.5675 137.428 64.4939 138.132 65.1921L142.922 69.9319C143.691 70.6938 143.901 71.7424 143.486 72.7379C143.07 73.7334 142.171 74.3267 141.082 74.3267H134.307C132.251 74.3267 130.578 75.9818 130.578 78.0166V86.5631C130.578 88.5992 132.251 90.2544 134.307 90.2544H141.082C142.171 90.2544 143.068 90.8477 143.486 91.8432C143.903 92.8387 143.691 93.8872 142.922 94.6491L138.132 99.389C137.428 100.086 137.04 101.014 137.04 101.998C137.04 102.985 137.428 103.911 138.132 104.609L144.238 110.653C145.647 112.048 148.102 112.05 149.513 110.653L154.302 105.911C155.072 105.151 156.13 104.941 157.137 105.354C158.143 105.767 158.742 106.655 158.742 107.732V114.438C158.742 116.473 160.415 118.128 162.471 118.128H171.106C173.162 118.128 174.835 116.473 174.835 114.438V107.732C174.835 106.655 175.434 105.767 176.44 105.354C177.447 104.94 178.505 105.151 179.275 105.911L184.064 110.653C185.475 112.049 187.931 112.046 189.339 110.653L195.445 104.609C196.149 103.912 196.537 102.985 196.537 101.998C196.537 101.014 196.149 100.087 195.445 99.389L190.655 94.6491C189.886 93.8872 189.676 92.8387 190.092 91.8432C190.507 90.8477 191.407 90.2544 192.496 90.2544H199.272C201.328 90.2544 203 88.5992 203 86.5645V78.0166C203 75.9818 201.328 74.3267 199.272 74.3267ZM200.318 86.5645C200.318 87.1352 199.848 87.5998 199.272 87.5998H192.496C190.318 87.5998 188.447 88.8368 187.614 90.8278C186.78 92.8188 187.219 95.0035 188.76 96.5273L193.55 101.267C193.959 101.672 193.959 102.329 193.55 102.732L187.444 108.776C187.036 109.179 186.373 109.182 185.963 108.776L181.174 104.035C179.633 102.509 177.427 102.078 175.415 102.901C173.404 103.725 172.154 105.577 172.154 107.732V114.438C172.154 115.009 171.684 115.473 171.108 115.473H162.471C161.894 115.473 161.425 115.009 161.425 114.438V107.732C161.425 105.577 160.175 103.725 158.163 102.901C157.488 102.624 156.794 102.488 156.107 102.488C154.747 102.488 153.429 103.019 152.404 104.033L147.615 108.774C147.204 109.181 146.541 109.178 146.134 108.774L140.028 102.731C139.619 102.326 139.619 101.669 140.028 101.266L144.819 96.5259C146.358 95.0022 146.798 92.8174 145.964 90.8265C145.131 88.8368 143.26 87.5998 141.082 87.5998H134.307C133.73 87.5998 133.261 87.1352 133.261 86.5645V78.0166C133.261 77.4458 133.73 76.9813 134.307 76.9813H141.082C143.26 76.9813 145.131 75.7442 145.964 73.7533C146.798 71.7623 146.36 69.5775 144.819 68.0538L140.028 63.314C139.619 62.9091 139.619 62.2521 140.028 61.8486L146.134 55.8054C146.542 55.4005 147.206 55.4005 147.615 55.8054L152.404 60.5452C153.942 62.0676 156.149 62.5043 158.163 61.6787C160.175 60.8558 161.425 59.0042 161.425 56.8486V50.143C161.425 49.5723 161.894 49.1077 162.471 49.1077H171.106C171.684 49.1077 172.154 49.5723 172.154 50.143V56.8486C172.154 59.0042 173.404 60.8558 175.415 61.68C177.43 62.5056 179.635 62.0703 181.174 60.5465L185.963 55.8067C186.374 55.4019 187.038 55.4019 187.444 55.8067L193.55 61.8499C193.959 62.2548 193.959 62.9118 193.55 63.3153L188.76 68.0551C187.22 69.5789 186.78 71.7636 187.614 73.7546C188.447 75.7456 190.318 76.9826 192.496 76.9826H199.272C199.848 76.9813 200.318 77.4458 200.318 78.0166V86.5645Z"/>
</mask>
<path d="M199.272 74.3267H192.496C191.407 74.3267 190.51 73.7334 190.093 72.7379C189.676 71.7424 189.888 70.6938 190.656 69.9319L195.447 65.1921C196.151 64.4953 196.538 63.5675 196.538 62.5826C196.538 61.5964 196.151 60.67 195.447 59.9718L189.34 53.9285C187.932 52.5349 185.477 52.5322 184.066 53.9285L179.277 58.6684C178.507 59.4289 177.445 59.6413 176.441 59.2272C175.436 58.8144 174.836 57.9264 174.836 56.8486V50.143C174.836 48.1083 173.164 46.4531 171.108 46.4531H162.471C160.415 46.4531 158.742 48.1083 158.742 50.143V56.8486C158.742 57.9264 158.143 58.8144 157.137 59.2272C156.134 59.6426 155.072 59.4289 154.302 58.6684L149.513 53.9285C148.102 52.5322 145.646 52.5349 144.238 53.9285L138.132 59.9718C137.428 60.6686 137.04 61.5964 137.04 62.5826C137.04 63.5675 137.428 64.4939 138.132 65.1921L142.922 69.9319C143.691 70.6938 143.901 71.7424 143.486 72.7379C143.07 73.7334 142.171 74.3267 141.082 74.3267H134.307C132.251 74.3267 130.578 75.9818 130.578 78.0166V86.5631C130.578 88.5992 132.251 90.2544 134.307 90.2544H141.082C142.171 90.2544 143.068 90.8477 143.486 91.8432C143.903 92.8387 143.691 93.8872 142.922 94.6491L138.132 99.389C137.428 100.086 137.04 101.014 137.04 101.998C137.04 102.985 137.428 103.911 138.132 104.609L144.238 110.653C145.647 112.048 148.102 112.05 149.513 110.653L154.302 105.911C155.072 105.151 156.13 104.941 157.137 105.354C158.143 105.767 158.742 106.655 158.742 107.732V114.438C158.742 116.473 160.415 118.128 162.471 118.128H171.106C173.162 118.128 174.835 116.473 174.835 114.438V107.732C174.835 106.655 175.434 105.767 176.44 105.354C177.447 104.94 178.505 105.151 179.275 105.911L184.064 110.653C185.475 112.049 187.931 112.046 189.339 110.653L195.445 104.609C196.149 103.912 196.537 102.985 196.537 101.998C196.537 101.014 196.149 100.087 195.445 99.389L190.655 94.6491C189.886 93.8872 189.676 92.8387 190.092 91.8432C190.507 90.8477 191.407 90.2544 192.496 90.2544H199.272C201.328 90.2544 203 88.5992 203 86.5645V78.0166C203 75.9818 201.328 74.3267 199.272 74.3267ZM200.318 86.5645C200.318 87.1352 199.848 87.5998 199.272 87.5998H192.496C190.318 87.5998 188.447 88.8368 187.614 90.8278C186.78 92.8188 187.219 95.0035 188.76 96.5273L193.55 101.267C193.959 101.672 193.959 102.329 193.55 102.732L187.444 108.776C187.036 109.179 186.373 109.182 185.963 108.776L181.174 104.035C179.633 102.509 177.427 102.078 175.415 102.901C173.404 103.725 172.154 105.577 172.154 107.732V114.438C172.154 115.009 171.684 115.473 171.108 115.473H162.471C161.894 115.473 161.425 115.009 161.425 114.438V107.732C161.425 105.577 160.175 103.725 158.163 102.901C157.488 102.624 156.794 102.488 156.107 102.488C154.747 102.488 153.429 103.019 152.404 104.033L147.615 108.774C147.204 109.181 146.541 109.178 146.134 108.774L140.028 102.731C139.619 102.326 139.619 101.669 140.028 101.266L144.819 96.5259C146.358 95.0022 146.798 92.8174 145.964 90.8265C145.131 88.8368 143.26 87.5998 141.082 87.5998H134.307C133.73 87.5998 133.261 87.1352 133.261 86.5645V78.0166C133.261 77.4458 133.73 76.9813 134.307 76.9813H141.082C143.26 76.9813 145.131 75.7442 145.964 73.7533C146.798 71.7623 146.36 69.5775 144.819 68.0538L140.028 63.314C139.619 62.9091 139.619 62.2521 140.028 61.8486L146.134 55.8054C146.542 55.4005 147.206 55.4005 147.615 55.8054L152.404 60.5452C153.942 62.0676 156.149 62.5043 158.163 61.6787C160.175 60.8558 161.425 59.0042 161.425 56.8486V50.143C161.425 49.5723 161.894 49.1077 162.471 49.1077H171.106C171.684 49.1077 172.154 49.5723 172.154 50.143V56.8486C172.154 59.0042 173.404 60.8558 175.415 61.68C177.43 62.5056 179.635 62.0703 181.174 60.5465L185.963 55.8067C186.374 55.4019 187.038 55.4019 187.444 55.8067L193.55 61.8499C193.959 62.2548 193.959 62.9118 193.55 63.3153L188.76 68.0551C187.22 69.5789 186.78 71.7636 187.614 73.7546C188.447 75.7456 190.318 76.9826 192.496 76.9826H199.272C199.848 76.9813 200.318 77.4458 200.318 78.0166V86.5645Z" fill="#008CE4"/>
<path d="M199.272 74.3267H192.496C191.407 74.3267 190.51 73.7334 190.093 72.7379C189.676 71.7424 189.888 70.6938 190.656 69.9319L195.447 65.1921C196.151 64.4953 196.538 63.5675 196.538 62.5826C196.538 61.5964 196.151 60.67 195.447 59.9718L189.34 53.9285C187.932 52.5349 185.477 52.5322 184.066 53.9285L179.277 58.6684C178.507 59.4289 177.445 59.6413 176.441 59.2272C175.436 58.8144 174.836 57.9264 174.836 56.8486V50.143C174.836 48.1083 173.164 46.4531 171.108 46.4531H162.471C160.415 46.4531 158.742 48.1083 158.742 50.143V56.8486C158.742 57.9264 158.143 58.8144 157.137 59.2272C156.134 59.6426 155.072 59.4289 154.302 58.6684L149.513 53.9285C148.102 52.5322 145.646 52.5349 144.238 53.9285L138.132 59.9718C137.428 60.6686 137.04 61.5964 137.04 62.5826C137.04 63.5675 137.428 64.4939 138.132 65.1921L142.922 69.9319C143.691 70.6938 143.901 71.7424 143.486 72.7379C143.07 73.7334 142.171 74.3267 141.082 74.3267H134.307C132.251 74.3267 130.578 75.9818 130.578 78.0166V86.5631C130.578 88.5992 132.251 90.2544 134.307 90.2544H141.082C142.171 90.2544 143.068 90.8477 143.486 91.8432C143.903 92.8387 143.691 93.8872 142.922 94.6491L138.132 99.389C137.428 100.086 137.04 101.014 137.04 101.998C137.04 102.985 137.428 103.911 138.132 104.609L144.238 110.653C145.647 112.048 148.102 112.05 149.513 110.653L154.302 105.911C155.072 105.151 156.13 104.941 157.137 105.354C158.143 105.767 158.742 106.655 158.742 107.732V114.438C158.742 116.473 160.415 118.128 162.471 118.128H171.106C173.162 118.128 174.835 116.473 174.835 114.438V107.732C174.835 106.655 175.434 105.767 176.44 105.354C177.447 104.94 178.505 105.151 179.275 105.911L184.064 110.653C185.475 112.049 187.931 112.046 189.339 110.653L195.445 104.609C196.149 103.912 196.537 102.985 196.537 101.998C196.537 101.014 196.149 100.087 195.445 99.389L190.655 94.6491C189.886 93.8872 189.676 92.8387 190.092 91.8432C190.507 90.8477 191.407 90.2544 192.496 90.2544H199.272C201.328 90.2544 203 88.5992 203 86.5645V78.0166C203 75.9818 201.328 74.3267 199.272 74.3267ZM200.318 86.5645C200.318 87.1352 199.848 87.5998 199.272 87.5998H192.496C190.318 87.5998 188.447 88.8368 187.614 90.8278C186.78 92.8188 187.219 95.0035 188.76 96.5273L193.55 101.267C193.959 101.672 193.959 102.329 193.55 102.732L187.444 108.776C187.036 109.179 186.373 109.182 185.963 108.776L181.174 104.035C179.633 102.509 177.427 102.078 175.415 102.901C173.404 103.725 172.154 105.577 172.154 107.732V114.438C172.154 115.009 171.684 115.473 171.108 115.473H162.471C161.894 115.473 161.425 115.009 161.425 114.438V107.732C161.425 105.577 160.175 103.725 158.163 102.901C157.488 102.624 156.794 102.488 156.107 102.488C154.747 102.488 153.429 103.019 152.404 104.033L147.615 108.774C147.204 109.181 146.541 109.178 146.134 108.774L140.028 102.731C139.619 102.326 139.619 101.669 140.028 101.266L144.819 96.5259C146.358 95.0022 146.798 92.8174 145.964 90.8265C145.131 88.8368 143.26 87.5998 141.082 87.5998H134.307C133.73 87.5998 133.261 87.1352 133.261 86.5645V78.0166C133.261 77.4458 133.73 76.9813 134.307 76.9813H141.082C143.26 76.9813 145.131 75.7442 145.964 73.7533C146.798 71.7623 146.36 69.5775 144.819 68.0538L140.028 63.314C139.619 62.9091 139.619 62.2521 140.028 61.8486L146.134 55.8054C146.542 55.4005 147.206 55.4005 147.615 55.8054L152.404 60.5452C153.942 62.0676 156.149 62.5043 158.163 61.6787C160.175 60.8558 161.425 59.0042 161.425 56.8486V50.143C161.425 49.5723 161.894 49.1077 162.471 49.1077H171.106C171.684 49.1077 172.154 49.5723 172.154 50.143V56.8486C172.154 59.0042 173.404 60.8558 175.415 61.68C177.43 62.5056 179.635 62.0703 181.174 60.5465L185.963 55.8067C186.374 55.4019 187.038 55.4019 187.444 55.8067L193.55 61.8499C193.959 62.2548 193.959 62.9118 193.55 63.3153L188.76 68.0551C187.22 69.5789 186.78 71.7636 187.614 73.7546C188.447 75.7456 190.318 76.9826 192.496 76.9826H199.272C199.848 76.9813 200.318 77.4458 200.318 78.0166V86.5645Z" stroke="white" stroke-width="4" mask="url(#path-20-outside-1)"/>
<path d="M166.789 69.3447C159.591 69.3447 153.719 75.1411 153.719 82.2906C153.719 89.4401 159.591 95.2365 166.789 95.2365C173.988 95.2365 179.86 89.4401 179.86 82.2906C179.86 75.1411 173.988 69.3447 166.789 69.3447ZM166.789 90.5818C162.156 90.5818 158.401 86.8507 158.401 82.2906C158.401 77.7305 162.156 73.9994 166.789 73.9994C171.422 73.9994 175.177 77.7305 175.177 82.2906C175.177 86.8507 171.422 90.5818 166.789 90.5818Z" fill="#008CE4" stroke="white" stroke-width="2"/>
<circle cx="27.9811" cy="8.22993" r="1.64595" fill="#008CE4"/>
<circle cx="35.6622" cy="8.22993" r="1.64595" fill="#008CE4"/>
<circle cx="43.3432" cy="8.22993" r="1.64595" fill="#008CE4"/>
<rect x="27.4324" y="34.0161" width="18.6541" height="2.19459" fill="#008CE4"/>
<rect x="27.4324" y="64.7405" width="18.6541" height="2.19459" fill="#008CE4"/>
<rect x="54.8649" y="7.68115" width="61.4487" height="1.0973" fill="#008CE4"/>
<rect x="19.7514" y="14.2649" width="151.427" height="2.19459" fill="#008CE4"/>
</svg>
