<svg width="104" height="20" viewBox="0 0 104 20" fill="none" xmlns="http://www.w3.org/2000/svg">
<path d="M21.7501 16.7522L28.4836 7.21953V5.67944H18.8831V7.88337H25.3273L18.6201 17.416V18.9561H28.7466V16.7522H21.7501Z" fill="white"/>
<path d="M32.2568 13.3799H43.2776C43.3302 13.0347 43.3565 12.6895 43.3565 12.3443C43.3565 8.62686 40.7789 5.33425 36.8072 5.33425C32.704 5.33425 29.9159 8.38788 29.9159 12.3178C29.9159 16.3008 32.7303 19.3013 36.965 19.3013C39.5953 19.3013 41.5943 18.1064 42.7516 16.3008L40.8052 15.1855C40.1476 16.2742 38.8325 17.1239 37.0176 17.1239C34.5715 17.1239 32.704 15.7697 32.2568 13.3799ZM36.8072 7.51162C38.7799 7.51162 40.6474 8.73308 41.0419 11.3619H32.2568C32.6251 9.05171 34.3347 7.51162 36.8072 7.51162Z" fill="white"/>
<path d="M52.5364 5.33425C50.6952 5.33425 49.2486 6.02463 48.2754 7.59128V5.67944H45.987V18.9561H48.2754V11.9195C48.2754 8.78618 49.985 7.53817 52.0892 7.53817C54.1146 7.53817 55.3508 8.75963 55.3508 10.937V18.9561H57.6391V10.8042C57.6391 7.40541 55.6138 5.33425 52.5364 5.33425Z" fill="white"/>
<path d="M62.8063 9.26414C62.8063 8.06924 63.9637 7.48507 65.1473 7.48507C66.3046 7.48507 67.4619 7.98958 67.9617 9.18448L69.8818 8.0958C69.0401 6.36983 67.3041 5.33425 65.1473 5.33425C62.4907 5.33425 60.4917 6.954 60.4917 9.2907C60.4917 14.0969 67.8565 12.4771 67.8565 15.3183C67.8565 16.6194 66.6465 17.1239 65.2525 17.1239C63.6217 17.1239 62.4118 16.3273 61.991 15.0528L60.0183 16.1946C60.781 18.0267 62.6222 19.3013 65.2525 19.3013C68.0669 19.3013 70.1711 17.7878 70.1711 15.3183C70.1711 10.4325 62.8063 12.1053 62.8063 9.26414Z" fill="white"/>
<path d="M78.702 19.3013C82.5422 19.3013 85.6459 16.2477 85.6459 12.3178C85.6459 8.38788 82.5422 5.33425 78.702 5.33425C74.8618 5.33425 71.7844 8.38788 71.7844 12.3178C71.7844 16.2477 74.8618 19.3013 78.702 19.3013ZM78.702 17.0443C76.098 17.0443 74.0727 14.9997 74.0727 12.3178C74.0727 9.63589 76.098 7.59128 78.702 7.59128C81.3323 7.59128 83.3576 9.63589 83.3576 12.3178C83.3576 14.9997 81.3323 17.0443 78.702 17.0443Z" fill="white"/>
<path d="M94.6153 2.25406V0.023575C90.854 -0.241958 88.855 1.74954 88.855 5.28114V5.67944H86.7508V7.90992H88.855V18.9561H91.1434V7.90992H94.6153V5.67944H91.1434V5.28114C91.1434 2.971 92.327 2.06818 94.6153 2.25406Z" fill="white"/>
<path d="M104 7.90992V5.67944H100.502V1.96197L98.2134 2.65236V5.67944H95.6095V7.90992H98.2134V15.1059C98.2134 18.425 100.055 19.4872 104 18.9561V16.885C101.659 16.9912 100.502 17.1239 100.502 15.1059V7.90992H104Z" fill="white"/>
<path fill-rule="evenodd" clip-rule="evenodd" d="M7.9476 5.34106L11.9214 12.1486L15.8952 18.9655H7.9476H0L3.9738 12.1486L7.9476 5.34106Z" fill="white"/>
</svg>