<svg width="26" height="26" viewBox="0 0 26 26" fill="none" xmlns="http://www.w3.org/2000/svg">
<path d="M13.0434 14.5154C16.8858 14.5154 20.0024 11.3988 20.0024 7.55646C20.0024 3.71412 16.8858 0.618835 13.0434 0.618835C9.20111 0.618835 6.0845 3.73544 6.0845 7.55646C6.0845 11.3775 9.20106 14.5154 13.0434 14.5154ZM13.0434 2.43329C15.8612 2.43329 18.1666 4.7387 18.1666 7.55646C18.1666 10.3742 15.8612 12.6796 13.0434 12.6796C10.2257 12.6796 7.92028 10.3742 7.92028 7.55641C7.92028 4.73865 10.2257 2.43329 13.0434 2.43329Z" fill="#DBE1E9"/>
<path d="M0.917889 25.3809H25.0821C25.5944 25.3809 26 24.9754 26 24.4631C26 19.6601 22.0936 15.7324 17.2693 15.7324H8.73072C3.92776 15.7324 0 19.6387 0 24.4631C0 24.9754 0.405577 25.3809 0.917889 25.3809ZM8.73072 17.5681H17.2693C20.7701 17.5681 23.6519 20.1724 24.1002 23.5451H1.89983C2.34809 20.1938 5.2299 17.5681 8.73072 17.5681Z" fill="#DBE1E9"/>
</svg>
