
<svg width="230" height="169" viewBox="0 0 230 169" fill="none" xmlns="http://www.w3.org/2000/svg">
<rect x="1" y="31" width="176" height="94" rx="1" fill="white" stroke="#008CE4" stroke-width="2"/>
<rect x="84" y="45" width="32" height="4" fill="#008CE4"/>
<rect opacity="0.15" x="16" y="45" width="59" height="66" rx="2" fill="#008CE4"/>
<rect x="84" y="68" width="33" height="2" fill="#008CE4"/>
<rect x="84" y="77" width="33" height="2" fill="#008CE4"/>
<rect x="1" y="1" width="176" height="23" rx="1" fill="white" stroke="#008CE4" stroke-width="2"/>
<rect x="11" y="11" width="2" height="13" fill="#008CE4"/>
<rect x="17" y="17" width="1" height="6" fill="#008CE4"/>
<rect x="22" y="17" width="1" height="6" fill="#008CE4"/>
<rect x="27" y="17" width="1" height="6" fill="#008CE4"/>
<rect x="32" y="17" width="1" height="6" fill="#008CE4"/>
<rect x="37" y="11" width="2" height="13" fill="#008CE4"/>
<rect x="43" y="17" width="1" height="6" fill="#008CE4"/>
<rect x="48" y="17" width="1" height="6" fill="#008CE4"/>
<rect x="53" y="17" width="1" height="6" fill="#008CE4"/>
<rect x="58" y="17" width="1" height="6" fill="#008CE4"/>
<rect x="63" y="11" width="2" height="13" fill="#008CE4"/>
<rect x="69" y="17" width="1" height="6" fill="#008CE4"/>
<rect x="74" y="17" width="1" height="6" fill="#008CE4"/>
<rect x="79" y="17" width="1" height="6" fill="#008CE4"/>
<rect x="84" y="17" width="1" height="6" fill="#008CE4"/>
<rect x="89" y="11" width="2" height="13" fill="#008CE4"/>
<rect x="95" y="17" width="1" height="6" fill="#008CE4"/>
<rect x="100" y="17" width="1" height="6" fill="#008CE4"/>
<rect x="105" y="17" width="1" height="6" fill="#008CE4"/>
<rect x="110" y="17" width="1" height="6" fill="#008CE4"/>
<rect x="115" y="11" width="2" height="13" fill="#008CE4"/>
<rect x="121" y="17" width="1" height="6" fill="#008CE4"/>
<rect x="126" y="17" width="1" height="6" fill="#008CE4"/>
<rect x="131" y="17" width="1" height="6" fill="#008CE4"/>
<rect x="136" y="17" width="1" height="6" fill="#008CE4"/>
<rect x="141" y="11" width="2" height="13" fill="#008CE4"/>
<rect x="147" y="17" width="1" height="6" fill="#008CE4"/>
<rect x="152" y="17" width="1" height="6" fill="#008CE4"/>
<rect x="157" y="17" width="1" height="6" fill="#008CE4"/>
<rect x="162" y="17" width="1" height="6" fill="#008CE4"/>
<rect x="167" y="11" width="2" height="13" fill="#008CE4"/>
<rect x="148.086" y="94.2047" width="4" height="14" transform="rotate(53.9057 148.086 94.2047)" fill="white" stroke="#008CE4"/>
<circle r="37" transform="matrix(0.808049 -0.589116 -0.589116 -0.808049 176.848 75.0923)" fill="white" stroke="#008CE4" stroke-width="2"/>
<ellipse rx="29.6249" ry="29.1051" transform="matrix(0.808049 -0.589116 -0.589116 -0.808049 177.252 74.7975)" fill="white"/>
<path d="M200.988 57.4923C191.602 44.6184 173.365 41.9213 160.253 51.4811C147.14 61.041 144.129 79.2288 153.515 92.1027C162.901 104.977 181.138 107.674 194.251 98.1138C207.363 88.554 210.374 70.3662 200.988 57.4923Z" stroke="#008CE4" stroke-opacity="0.25" stroke-width="0.5"/>
<rect x="137.17" y="95.3571" width="14" height="62" rx="7" transform="rotate(53.9057 137.17 95.3571)" fill="white" stroke="#008CE4" stroke-width="2"/>
</svg>
