<svg width="224" height="127" viewBox="0 0 224 127" fill="none" xmlns="http://www.w3.org/2000/svg">
<rect x="1" y="1" width="176" height="125" rx="1" fill="white" stroke="#008CE4" stroke-width="2"/>
<mask id="path-2-inside-1" fill="white">
<path fill-rule="evenodd" clip-rule="evenodd" d="M176.544 83C180.613 74.7081 189.14 69 199 69C212.807 69 224 80.1929 224 94C224 107.807 212.807 119 199 119C188.748 119 179.938 112.83 176.08 104L138 104L138 92.6923L151.5 83L157.5 83L162 86.5L166.5 86.5L171 83L176.544 83Z"/>
</mask>
<path fill-rule="evenodd" clip-rule="evenodd" d="M176.544 83C180.613 74.7081 189.14 69 199 69C212.807 69 224 80.1929 224 94C224 107.807 212.807 119 199 119C188.748 119 179.938 112.83 176.08 104L138 104L138 92.6923L151.5 83L157.5 83L162 86.5L166.5 86.5L171 83L176.544 83Z" fill="white"/>
<path d="M176.544 83L178.339 83.8811L177.79 85L176.544 85L176.544 83ZM176.08 104L176.08 102L177.389 102L177.913 103.199L176.08 104ZM138 104L138 106L136 106L136 104L138 104ZM138 92.6923L136 92.6923L136 91.6661L136.834 91.0677L138 92.6923ZM151.5 83L150.334 81.3753L150.856 81L151.5 81L151.5 83ZM157.5 83L157.5 81L158.186 81L158.728 81.4213L157.5 83ZM162 86.5L162 88.5L161.314 88.5L160.772 88.0787L162 86.5ZM166.5 86.5L167.728 88.0787L167.186 88.5L166.5 88.5L166.5 86.5ZM171 83L169.772 81.4213L170.314 81L171 81L171 83ZM199 71C189.932 71 182.085 76.2478 178.339 83.8811L174.748 82.1189C179.141 73.1684 188.348 67 199 67L199 71ZM222 94C222 81.2975 211.703 71 199 71L199 67C213.912 67 226 79.0883 226 94L222 94ZM199 117C211.703 117 222 106.703 222 94L226 94C226 108.912 213.912 121 199 121L199 117ZM177.913 103.199C181.464 111.327 189.572 117 199 117L199 121C187.925 121 178.412 114.332 174.248 104.801L177.913 103.199ZM138 102L176.08 102L176.08 106L138 106L138 102ZM140 92.6923L140 104L136 104L136 92.6923L140 92.6923ZM152.666 84.6246L139.166 94.317L136.834 91.0677L150.334 81.3753L152.666 84.6246ZM157.5 85L151.5 85L151.5 81L157.5 81L157.5 85ZM160.772 88.0787L156.272 84.5787L158.728 81.4213L163.228 84.9213L160.772 88.0787ZM166.5 88.5L162 88.5L162 84.5L166.5 84.5L166.5 88.5ZM172.228 84.5787L167.728 88.0787L165.272 84.9213L169.772 81.4213L172.228 84.5787ZM176.544 85L171 85L171 81L176.544 81L176.544 85Z" fill="#008CE4" mask="url(#path-2-inside-1)"/>
<circle r="18.5" transform="matrix(4.37114e-08 -1 -1 -4.37114e-08 199 94)" fill="white" stroke="#008CE4"/>
<circle r="4.5" transform="matrix(4.37114e-08 -1 -1 -4.37114e-08 206.5 94.5)" fill="white" stroke="#008CE4" stroke-width="2"/>
<path d="M138 98L177 98L179.5 100" stroke="#008CE4"/>
<circle cx="178" cy="36" r="24" fill="white"/>
<circle cx="178" cy="36" r="23.75" stroke="#008CE4" stroke-opacity="0.2" stroke-width="0.5"/>
<circle cx="178" cy="36" r="16" fill="white" stroke="#008CE4" stroke-width="2"/>
<rect x="124" y="77" width="4" height="28" rx="1" fill="#008CE4"/>
<rect opacity="0.15" x="124" y="19" width="4" height="28" rx="1" fill="#008CE4"/>
<rect x="20.5" y="19.5" width="15" height="18" rx="7.5" stroke="#008CE4"/>
<path fill-rule="evenodd" clip-rule="evenodd" d="M40 53V51C40 44.3726 34.6274 39 28 39C21.3726 39 16 44.3726 16 51V53H15V51C15 43.8203 20.8203 38 28 38C35.1797 38 41 43.8203 41 51V53H40Z" fill="#008CE4"/>
<rect x="20.5" y="76.5" width="15" height="18" rx="7.5" stroke="#008CE4"/>
<path fill-rule="evenodd" clip-rule="evenodd" d="M40 110V108C40 101.373 34.6274 96 28 96C21.3726 96 16 101.373 16 108V110H15V108C15 100.82 20.8203 95 28 95C35.1797 95 41 100.82 41 108V110H40Z" fill="#008CE4"/>
<rect x="185.04" y="35.1135" width="2" height="12.5064" transform="rotate(90 185.04 35.1135)" fill="#008CE4"/>
<rect x="179.54" y="41.96" width="2" height="12.3466" transform="rotate(-180 179.54 41.96)" fill="#008CE4"/>
<rect x="53" y="19" width="50" height="2" fill="#008CE4"/>
<rect x="53" y="24" width="25" height="2" fill="#008CE4"/>
<rect x="53" y="38" width="32" height="1" fill="#008CE4"/>
<rect x="53" y="41" width="32" height="1" fill="#008CE4"/>
<rect x="53" y="44" width="32" height="1" fill="#008CE4"/>
<rect x="53" y="76" width="50" height="2" fill="#008CE4"/>
<rect x="53" y="81" width="25" height="2" fill="#008CE4"/>
<rect x="53" y="95" width="32" height="1" fill="#008CE4"/>
<rect x="53" y="98" width="32" height="1" fill="#008CE4"/>
<rect x="53" y="101" width="32" height="1" fill="#008CE4"/>
</svg>
